# Blender v2.62 (sub 0) OBJ File: 'platforms.blend'
# www.blender.org
v 0.157878 1.000000 -1.000000
v 2.510795 -1.000000 -1.000000
v -2.510794 -1.000000 -1.000000
v -0.157878 1.000000 -1.000000
v 0.157879 0.999999 1.000000
v 2.510793 -1.000001 1.000000
v -2.510795 -1.000000 1.000000
v -0.157878 1.000000 1.000000
vn 0.000000 -0.000000 1.000000
vn 0.647653 0.761936 0.000000
vn -0.000000 -1.000000 -0.000000
vn -0.647652 0.761936 -0.000000
vn 0.000002 1.000000 0.000000
s off
f 5//1 8//1 7//1
f 5//1 7//1 6//1
f 1//2 5//2 6//2
f 1//2 6//2 2//2
f 2//3 6//3 7//3
f 2//3 7//3 3//3
f 3//4 7//4 8//4
f 3//4 8//4 4//4
f 5//5 1//5 4//5
f 5//5 4//5 8//5
